<svg version="1.1" id="Layer_1" xmlns="http://www.w3.org/2000/svg" xmlns:xlink="http://www.w3.org/1999/xlink" x="0px" y="0px"
	 width="100%" viewBox="0 0 587 525" enable-background="new 0 0 587 525" xml:space="preserve">
<path fill="#FFFFFF" opacity="1.000000" stroke="none" 
	d="
M419.000000,526.000000 
	C279.333344,526.000000 140.166672,526.000000 1.000000,526.000000 
	C1.000000,351.000000 1.000000,176.000000 1.000000,1.000000 
	C196.666672,1.000000 392.333344,1.000000 588.000000,1.000000 
	C588.000000,176.000000 588.000000,351.000000 588.000000,526.000000 
	C531.833313,526.000000 475.666656,526.000000 419.000000,526.000000 
M172.459412,196.161591 
	C171.981049,196.465286 171.502686,196.768967 170.346252,197.073868 
	C169.913223,197.196716 169.480194,197.319565 168.432999,197.299545 
	C167.808075,197.790619 167.183136,198.281693 165.913361,198.717758 
	C165.275894,198.813232 164.638428,198.908722 163.259933,198.977692 
	C161.845871,199.405838 160.431808,199.833984 158.437607,200.177002 
	C157.968109,200.475906 157.498627,200.774796 156.344696,201.048340 
	C155.900391,201.143829 155.456100,201.239319 154.276199,201.291336 
	C151.146561,202.443359 148.016922,203.595398 144.068314,204.818161 
	C138.371155,206.523605 132.674011,208.229050 126.174835,209.928894 
	C122.454132,210.965256 118.733421,212.001633 114.242188,213.087357 
	C110.514801,214.119797 106.787415,215.152222 102.304970,216.164734 
	C97.113861,217.663269 91.827774,218.905823 86.776115,220.780212 
	C84.608841,221.584366 81.740509,223.409409 81.279343,225.284348 
	C80.370964,228.977554 80.073059,233.360016 84.980003,235.324280 
	C90.599365,237.573715 96.217514,239.826187 102.307632,242.589401 
	C106.512505,244.436401 110.717377,246.283401 115.275230,248.725800 
	C119.175514,250.505707 123.075806,252.285629 127.653229,254.215683 
	C133.102341,256.809418 138.551437,259.403137 144.724899,262.371429 
	C145.179031,263.691864 146.023865,265.011322 146.027008,266.332855 
	C146.059464,279.941772 146.118683,293.555237 145.766144,307.156982 
	C145.686081,310.245361 144.617523,313.638763 143.011627,316.290924 
	C139.192505,322.598175 138.676270,328.665558 142.482376,335.047760 
	C143.405762,336.596069 144.561523,338.156647 144.934326,339.859589 
	C149.606750,361.204041 148.242081,382.747070 146.716370,404.264771 
	C145.684708,418.814575 144.089691,433.326355 143.184937,447.882385 
	C142.685028,455.924866 145.110031,458.632263 153.733963,461.181854 
	C156.156784,461.103485 158.579620,461.025116 161.750015,460.972076 
	C173.487885,457.474670 178.244949,450.298126 176.656723,438.224731 
	C175.856445,432.140961 175.079010,426.035858 173.853287,420.029816 
	C170.034439,401.317474 166.006470,382.647797 162.124512,363.073853 
	C161.246994,357.246460 160.098648,351.443024 159.580139,345.583862 
	C159.185898,341.128815 158.664856,336.340729 159.845123,332.165833 
	C161.972595,324.640350 161.042618,319.000397 154.884399,312.114502 
	C154.568756,300.019501 154.130814,287.925415 154.038849,275.828735 
	C154.020050,273.357239 155.299805,270.875916 156.667130,268.804291 
	C159.066193,269.630096 161.465256,270.455933 164.294678,271.804230 
	C168.197174,273.525940 172.099686,275.247681 176.565033,277.384369 
	C180.637665,279.300354 184.710297,281.216339 189.288849,283.651733 
	C193.668457,285.326538 192.977646,289.088989 192.830780,292.520691 
	C191.966888,312.708923 190.470322,332.892059 190.380081,353.082245 
	C190.334076,363.372498 193.959473,373.229858 201.005890,381.968903 
	C201.623184,382.665405 202.240479,383.361908 203.018723,384.697723 
	C203.979858,385.543030 204.941010,386.388306 206.058044,387.644836 
	C206.234100,387.905792 206.478561,388.053528 207.033279,388.705231 
	C208.362762,389.428284 209.692245,390.151337 211.643448,391.224121 
	C215.065948,392.573242 218.488464,393.922333 222.388321,395.789612 
	C225.927261,396.839447 229.466202,397.889282 233.542465,399.462219 
	C240.365051,401.211426 247.187637,402.960632 254.653366,404.953522 
	C255.108231,404.952148 255.563080,404.950775 256.526794,405.339935 
	C257.355011,405.439758 258.183258,405.539581 259.756378,405.973724 
	C261.623352,406.133911 263.490295,406.294128 265.746979,406.943207 
	C266.522095,407.031525 267.297241,407.119843 268.877533,407.522919 
	C270.609650,407.584381 272.341797,407.645874 274.643890,408.243439 
	C277.109833,408.348969 279.575745,408.454468 282.916046,408.757233 
	C285.603210,408.735046 288.290375,408.712891 291.879944,408.908600 
	C295.584198,408.803589 299.288483,408.698578 303.866516,408.770294 
	C311.239075,407.815704 318.611633,406.861145 326.695679,406.028809 
	C327.799835,405.693359 328.903992,405.357910 330.762909,405.080566 
	C331.500824,404.933838 332.238708,404.787109 333.547516,404.771240 
	C334.027069,404.502289 334.506622,404.233337 335.756897,404.011505 
	C336.502563,403.831818 337.248199,403.652130 338.729858,403.607941 
	C342.150452,402.614288 345.571075,401.620605 349.673889,400.695129 
	C351.100128,400.093262 352.526398,399.491425 354.538544,398.945862 
	C355.052612,398.700012 355.566711,398.454163 356.856049,398.183380 
	C359.897949,396.999786 362.939880,395.816193 366.601349,394.713745 
	C367.217499,394.202423 367.833649,393.691132 368.745728,393.264587 
	C368.745728,393.264587 369.016510,393.118195 369.762177,393.096313 
	C373.838593,390.724396 377.914978,388.352448 382.671021,385.903046 
	C389.857056,380.586884 396.314697,374.774445 397.467987,364.599335 
	C398.636383,364.047333 399.804810,363.495331 401.710114,362.951752 
	C411.837891,357.715088 421.965637,352.478394 432.774078,347.071869 
	C440.511993,340.707306 448.249878,334.342773 456.618683,327.756470 
	C470.446228,314.730804 480.743561,299.152771 489.436737,282.409271 
	C491.154938,279.099945 491.047485,275.993988 488.455963,273.221252 
	C485.683411,270.254883 482.661224,271.113922 479.344452,272.481598 
	C471.382477,275.764862 463.450104,279.257355 455.223083,281.721466 
	C447.034088,284.174164 438.500244,285.475372 429.282867,287.100616 
	C418.856049,287.037506 408.429260,286.974396 397.354858,286.602020 
	C395.752228,286.151611 394.149567,285.701202 392.690460,284.630707 
	C392.439148,284.095947 392.187836,283.561218 392.037872,282.257355 
	C391.985596,281.485260 391.933350,280.713135 392.498871,279.623962 
	C395.667114,277.752258 398.835358,275.880554 402.722290,273.942932 
	C405.820496,272.312225 408.918701,270.681519 412.733063,268.953735 
	C416.857544,266.701965 420.981995,264.450195 425.852844,262.150330 
	C433.552704,258.381561 441.252563,254.612762 449.629700,250.688919 
	C453.432129,248.482407 457.234528,246.275894 461.774353,243.991882 
	C466.096527,241.973358 470.338226,239.754852 474.756866,237.975983 
	C485.526031,233.640503 486.612213,232.325195 485.862091,220.781723 
	C485.741577,218.926666 484.049744,216.067963 482.501465,215.599518 
	C475.113190,213.364136 467.523834,211.793350 459.265564,209.875977 
	C455.833618,208.950394 452.401642,208.024811 448.226349,206.920044 
	C440.157928,204.925735 432.089539,202.931427 423.350006,200.615295 
	C419.581604,199.699661 415.813232,198.784027 411.484924,197.394928 
	C407.990265,196.594193 404.495636,195.793457 400.336975,194.686920 
	C397.216583,193.895355 394.096161,193.103790 390.212982,192.086243 
	C386.136688,191.102173 382.060364,190.118103 377.254700,188.840378 
	C372.845337,187.834595 368.435974,186.828796 363.420410,185.446121 
	C358.945343,184.321487 354.470245,183.196838 349.265198,181.825348 
	C344.834717,180.678940 340.404205,179.532532 335.315491,178.190796 
	C334.858795,178.178619 334.402100,178.166443 333.621765,177.666656 
	C333.074341,177.543610 332.526917,177.420563 331.248932,177.007782 
	C328.165955,176.339188 325.082977,175.670578 321.417297,174.608017 
	C320.274628,174.414352 319.131958,174.220673 317.656586,173.553650 
	C317.100006,173.472549 316.543396,173.391449 315.349365,173.066650 
	C314.897522,173.049896 314.445679,173.033142 313.616211,172.586685 
	C313.073608,172.490784 312.531006,172.394882 311.243378,171.984848 
	C310.175018,171.869217 309.106689,171.753601 307.458282,171.247589 
	C302.971710,170.170792 298.485107,169.093994 293.329071,167.684616 
	C286.267914,164.423065 279.136688,164.641586 271.858002,166.426758 
	C270.808167,157.949432 269.758301,149.472122 268.925018,140.081512 
	C269.176331,133.938980 269.105713,127.761925 269.759918,121.662613 
	C270.589966,113.923744 272.008392,106.247986 273.613678,98.257874 
	C273.761169,97.498230 273.908661,96.738579 274.298035,95.538841 
	C274.255341,95.216995 274.212677,94.895157 274.757629,94.107910 
	C277.785828,86.098564 281.079254,78.173363 283.664948,70.023605 
	C284.353699,67.852829 283.659241,64.245049 282.158600,62.671173 
	C280.781708,61.227074 276.934540,60.543949 275.096527,61.431789 
	C269.508057,64.131248 264.365021,67.752762 258.414246,71.116249 
	C257.942261,71.534935 257.470276,71.953613 256.423004,72.371017 
	C255.880814,72.886620 255.338638,73.402222 254.144592,74.094505 
	C247.351517,80.034958 240.558456,85.975410 233.154251,92.161034 
	C228.438431,97.798843 223.722595,103.436661 218.397675,109.342957 
	C213.871368,117.025124 209.345047,124.707298 204.208817,132.829437 
	C201.167282,140.231354 198.125732,147.633270 194.595093,155.345139 
	C194.504639,155.898743 194.414169,156.452347 194.021774,157.610596 
	C193.958038,158.054016 193.894302,158.497437 193.300644,159.447433 
	C191.152954,170.266083 189.005280,181.084717 186.143478,192.038910 
	C182.431412,193.382889 178.719345,194.726868 174.472244,195.999359 
	C174.299622,196.050064 174.126984,196.100784 173.495941,196.092148 
	C173.495941,196.092148 173.056473,196.236603 172.459412,196.161591 
z"/>
<path fill="#8D5198" opacity="1.000000" stroke="none" 
	d="
M204.818726,132.389465 
	C209.345047,124.707298 213.871368,117.025124 218.708252,109.574020 
	C219.356964,110.716499 219.563843,111.705978 220.052582,112.527809 
	C229.713852,128.773117 239.421906,144.990585 249.091568,161.230911 
	C261.561859,182.174911 273.929443,203.180481 286.485626,224.072769 
	C297.674347,242.689743 309.156982,261.130188 320.333923,279.754150 
	C334.670197,303.642517 348.905090,327.592712 363.015320,351.615143 
	C366.668304,357.834290 369.692841,364.422577 372.645355,370.898682 
	C371.183044,371.286926 370.081451,371.617767 368.528076,371.947571 
	C364.053558,372.328156 360.030792,372.709808 355.554169,373.065094 
	C352.066864,373.019257 349.033417,372.999786 345.994720,372.605682 
	C345.275513,370.389862 344.802887,368.404785 343.805969,366.732269 
	C339.403351,359.346008 334.780914,352.090973 330.365692,344.712036 
	C321.878723,330.528351 313.534973,316.258881 305.025635,302.088745 
	C296.668732,288.172485 288.086700,274.391022 279.769684,260.451233 
	C265.007965,235.709702 250.420334,210.864334 235.664993,186.118988 
	C226.921371,171.455536 217.927551,156.941116 209.207947,142.263596 
	C207.381012,139.188370 206.263275,135.691849 204.818726,132.389465 
z"/>
<path fill="#825099" opacity="1.000000" stroke="none" 
	d="
M373.006042,370.841309 
	C369.692841,364.422577 366.668304,357.834290 363.015320,351.615143 
	C348.905090,327.592712 334.670197,303.642517 320.333923,279.754150 
	C309.156982,261.130188 297.674347,242.689743 286.485626,224.072769 
	C273.929443,203.180481 261.561859,182.174911 249.091568,161.230911 
	C239.421906,144.990585 229.713852,128.773117 220.052582,112.527809 
	C219.563843,111.705978 219.356964,110.716499 219.012817,109.439774 
	C223.722595,103.436661 228.438431,97.798843 233.823425,92.099152 
	C235.388763,93.156342 236.428833,94.189186 237.159134,95.407677 
	C245.571625,109.443962 253.958542,123.495735 262.295410,137.577042 
	C263.785065,140.093170 265.648682,141.582870 268.708435,140.994797 
	C269.758301,149.472122 270.808167,157.949432 271.930389,167.230713 
	C275.909332,186.301056 282.019836,203.660538 293.121948,219.336960 
	C297.844421,225.760269 302.429260,231.869232 307.154358,238.280182 
	C312.187561,243.075333 317.080566,247.568481 322.126892,252.358124 
	C327.171844,256.133453 332.063507,259.612305 337.024811,263.422333 
	C339.728180,265.805634 342.361877,267.857758 344.997223,270.303436 
	C345.323486,271.948425 345.396423,273.342773 346.012970,274.428436 
	C350.499146,282.328125 355.021576,290.209198 359.670410,298.014069 
	C370.429657,316.077606 381.163483,334.158142 392.152832,352.081390 
	C394.569550,356.022949 398.006226,359.339142 400.973206,362.943329 
	C399.804810,363.495331 398.636383,364.047333 396.817200,364.790955 
	C391.459320,366.383209 386.752197,367.783813 381.654602,369.148132 
	C378.511444,369.688324 375.758728,370.264832 373.006042,370.841309 
z"/>
<path fill="#9F5298" opacity="1.000000" stroke="none" 
	d="
M186.857605,191.903366 
	C189.005280,181.084717 191.152954,170.266083 193.930069,159.241150 
	C195.239182,159.471222 196.175964,159.748260 196.559906,160.367859 
	C202.239075,169.532669 207.928116,178.693329 213.448425,187.954163 
	C221.609894,201.645798 229.550964,215.469116 237.745438,229.140747 
	C249.859406,249.351730 262.135681,269.465332 274.302002,289.645050 
	C288.183319,312.669250 302.092316,335.677429 315.802887,358.803101 
	C318.029510,362.558746 319.290680,366.886719 320.593018,370.954529 
	C314.794769,369.956390 309.401672,368.953857 303.681580,367.803955 
	C299.260773,366.389954 295.166962,365.123322 290.869507,363.615021 
	C289.439484,362.597534 288.213074,361.821686 286.985229,360.656799 
	C286.338806,358.221039 286.043396,355.971222 284.991638,354.160797 
	C278.493469,342.975128 271.874207,331.858795 265.202454,320.775238 
	C253.057556,300.599213 240.808685,280.485779 228.676254,260.302277 
	C216.372147,239.833130 204.201218,219.283707 191.817917,198.862839 
	C190.812897,197.205505 188.618805,196.269211 186.968781,194.610107 
	C186.926071,193.449371 186.891846,192.676361 186.857605,191.903366 
z"/>
<path fill="#945199" opacity="1.000000" stroke="none" 
	d="
M320.998108,370.950165 
	C319.290680,366.886719 318.029510,362.558746 315.802887,358.803101 
	C302.092316,335.677429 288.183319,312.669250 274.302002,289.645050 
	C262.135681,269.465332 249.859406,249.351730 237.745438,229.140747 
	C229.550964,215.469116 221.609894,201.645798 213.448425,187.954163 
	C207.928116,178.693329 202.239075,169.532669 196.559906,160.367859 
	C196.175964,159.748260 195.239182,159.471222 194.195038,158.987869 
	C193.894302,158.497437 193.958038,158.054016 194.434662,157.262848 
	C194.926437,156.288467 195.005310,155.661819 195.084183,155.035172 
	C198.125732,147.633270 201.167282,140.231354 204.513763,132.609451 
	C206.263275,135.691849 207.381012,139.188370 209.207947,142.263596 
	C217.927551,156.941116 226.921371,171.455536 235.664993,186.118988 
	C250.420334,210.864334 265.007965,235.709702 279.769684,260.451233 
	C288.086700,274.391022 296.668732,288.172485 305.025635,302.088745 
	C313.534973,316.258881 321.878723,330.528351 330.365692,344.712036 
	C334.780914,352.090973 339.403351,359.346008 343.805969,366.732269 
	C344.802887,368.404785 345.275513,370.389862 345.557800,372.620483 
	C343.086975,373.031952 341.047791,373.053986 338.574249,373.047852 
	C334.425751,372.689240 330.711639,372.358826 326.610657,372.014099 
	C324.481903,371.649872 322.739990,371.300018 320.998108,370.950165 
z"/>
<path fill="#75519B" opacity="1.000000" stroke="none" 
	d="
M401.341675,362.947540 
	C398.006226,359.339142 394.569550,356.022949 392.152832,352.081390 
	C381.163483,334.158142 370.429657,316.077606 359.670410,298.014069 
	C355.021576,290.209198 350.499146,282.328125 346.012970,274.428436 
	C345.396423,273.342773 345.323486,271.948425 345.343231,270.353088 
	C347.131897,270.662292 348.576202,271.315369 350.203461,272.241760 
	C351.603821,272.979950 352.821198,273.444885 354.177551,274.178894 
	C354.879242,274.602142 355.441925,274.756287 356.359619,274.973785 
	C359.149139,275.987701 361.583679,276.938263 364.341949,278.071442 
	C368.777496,279.503479 372.889374,280.752960 377.345581,282.164673 
	C382.121216,283.248932 386.552551,284.171021 391.243408,285.135071 
	C391.850983,285.201630 392.198944,285.226196 392.546936,285.250793 
	C394.149567,285.701202 395.752228,286.151611 397.681458,287.136230 
	C398.137329,288.312775 398.104279,289.051483 398.419891,289.583282 
	C404.989380,300.652924 411.666260,311.659332 418.176941,322.763275 
	C422.924011,330.859283 427.462158,339.077789 432.093414,347.241699 
	C421.965637,352.478394 411.837891,357.715088 401.341675,362.947540 
z"/>
<path fill="#B3B0B0" opacity="1.000000" stroke="none" 
	d="
M155.980972,268.399109 
	C155.299805,270.875916 154.020050,273.357239 154.038849,275.828735 
	C154.130814,287.925415 154.568756,300.019501 154.553085,312.783813 
	C153.814316,315.494446 153.054123,317.535278 153.051163,319.577209 
	C152.982727,366.729828 152.996582,413.882568 152.995178,461.035278 
	C145.110031,458.632263 142.685028,455.924866 143.184937,447.882385 
	C144.089691,433.326355 145.684708,418.814575 146.716370,404.264771 
	C148.242081,382.747070 149.606750,361.204041 144.934326,339.859589 
	C144.561523,338.156647 143.405762,336.596069 142.482376,335.047760 
	C138.676270,328.665558 139.192505,322.598175 143.011627,316.290924 
	C144.617523,313.638763 145.686081,310.245361 145.766144,307.156982 
	C146.118683,293.555237 146.059464,279.941772 146.027008,266.332855 
	C146.023865,265.011322 145.179031,263.691864 144.361984,261.715820 
	C143.998764,248.740295 143.901428,236.419357 144.037857,224.100983 
	C144.109329,217.647446 144.590897,211.198456 144.887268,204.747406 
	C148.016922,203.595398 151.146561,202.443359 154.570358,201.696075 
	C154.575760,203.709564 154.040970,205.317551 154.035858,206.927200 
	C153.976929,225.480637 153.939789,244.034790 154.085129,262.587280 
	C154.100342,264.529358 155.320084,266.462067 155.980972,268.399109 
z"/>
<path fill="#6D5BA1" opacity="1.000000" stroke="none" 
	d="
M432.433746,347.156799 
	C427.462158,339.077789 422.924011,330.859283 418.176941,322.763275 
	C411.666260,311.659332 404.989380,300.652924 398.419891,289.583282 
	C398.104279,289.051483 398.137329,288.312775 398.005249,287.290863 
	C408.429260,286.974396 418.856049,287.037506 429.933685,287.411072 
	C431.484375,288.356873 432.716064,288.793213 433.234314,289.657410 
	C440.874512,302.397583 448.419922,315.194641 455.987793,327.978210 
	C448.249878,334.342773 440.511993,340.707306 432.433746,347.156799 
z"/>
<path fill="#6867A9" opacity="1.000000" stroke="none" 
	d="
M456.303223,327.867340 
	C448.419922,315.194641 440.874512,302.397583 433.234314,289.657410 
	C432.716064,288.793213 431.484375,288.356873 430.351074,287.501495 
	C438.500244,285.475372 447.034088,284.174164 455.223083,281.721466 
	C463.450104,279.257355 471.382477,275.764862 479.344452,272.481598 
	C482.661224,271.113922 485.683411,270.254883 488.455963,273.221252 
	C491.047485,275.993988 491.154938,279.099945 489.436737,282.409271 
	C480.743561,299.152771 470.446228,314.730804 456.303223,327.867340 
z"/>
<path fill="#75519B" opacity="1.000000" stroke="none" 
	d="
M268.816711,140.538147 
	C265.648682,141.582870 263.785065,140.093170 262.295410,137.577042 
	C253.958542,123.495735 245.571625,109.443962 237.159134,95.407677 
	C236.428833,94.189186 235.388763,93.156342 234.128983,91.976562 
	C240.558456,85.975410 247.351517,80.034958 254.782074,74.010361 
	C255.945801,73.408241 256.472046,72.890266 256.998291,72.372292 
	C257.470276,71.953613 257.942261,71.534935 259.099670,71.068893 
	C261.492767,72.808037 263.649841,74.342010 264.822754,76.429062 
	C268.153687,82.356216 271.082733,88.509224 274.170013,94.573311 
	C274.212677,94.895157 274.255341,95.216995 273.893921,95.985016 
	C273.384247,97.135796 273.278687,97.840408 273.173157,98.545013 
	C272.008392,106.247986 270.589966,113.923744 269.759918,121.662613 
	C269.105713,127.761925 269.176331,133.938980 268.816711,140.538147 
z"/>
<path fill="#69696A" opacity="1.000000" stroke="none" 
	d="
M265.357269,406.454315 
	C263.490295,406.294128 261.623352,406.133911 259.316986,405.514008 
	C257.924377,405.019318 256.971161,404.984375 256.017944,404.949402 
	C255.563080,404.950775 255.108231,404.952148 254.237610,404.474823 
	C253.214371,402.368927 252.091049,400.745575 252.078827,399.113892 
	C251.950394,381.988434 251.954880,364.861267 252.091370,347.735931 
	C252.101471,346.467407 253.414337,345.209259 254.414307,344.110260 
	C261.806335,348.504913 268.905609,352.735657 276.003235,357.437134 
	C275.992981,374.249176 275.984406,390.590485 275.705933,406.954376 
	C274.982025,407.220428 274.527985,407.463898 274.073914,407.707367 
	C272.341797,407.645874 270.609650,407.584381 268.314056,407.091980 
	C266.952820,406.592133 266.155029,406.523224 265.357269,406.454315 
z"/>
<path fill="#C8C6C6" opacity="1.000000" stroke="none" 
	d="
M448.952393,250.843964 
	C441.252563,254.612762 433.552704,258.381561 425.437439,261.732452 
	C424.683380,258.880707 424.062103,256.448090 424.051208,254.012787 
	C423.972137,236.321198 424.016083,218.629074 424.021118,200.937119 
	C432.089539,202.931427 440.157928,204.925735 448.604767,207.467377 
	C448.972931,222.291122 448.962646,236.567535 448.952393,250.843964 
z"/>
<path fill="#A6A3A4" opacity="1.000000" stroke="none" 
	d="
M390.983856,285.093109 
	C386.552551,284.171021 382.121216,283.248932 377.346283,281.695740 
	C377.002136,255.020325 376.954407,228.975891 377.045380,202.931961 
	C377.061462,198.331619 377.656433,193.733292 377.984070,189.134033 
	C382.060364,190.118103 386.136688,191.102173 390.601379,192.640396 
	C390.992798,220.208237 390.978027,247.221954 391.036682,274.235504 
	C391.040802,276.137970 391.586945,278.039215 391.881042,279.941040 
	C391.933350,280.713135 391.985596,281.485260 391.744934,282.817871 
	C391.295990,283.949951 391.139923,284.521515 390.983856,285.093109 
z"/>
<path fill="#706F70" opacity="1.000000" stroke="none" 
	d="
M254.121552,343.946320 
	C253.414337,345.209259 252.101471,346.467407 252.091370,347.735931 
	C251.954880,364.861267 251.950394,381.988434 252.078827,399.113892 
	C252.091049,400.745575 253.214371,402.368927 253.916046,404.352966 
	C247.187637,402.960632 240.365051,401.211426 233.277191,398.737244 
	C233.008972,376.427643 232.957275,354.842712 233.093750,333.258972 
	C233.104919,331.491119 234.397766,329.731384 235.395050,328.108826 
	C241.837173,333.481964 247.979370,338.714142 254.121552,343.946320 
z"/>
<path fill="#969394" opacity="1.000000" stroke="none" 
	d="
M364.018250,277.888855 
	C361.583679,276.938263 359.149139,275.987701 356.325104,274.695129 
	C355.303284,274.205353 354.670959,274.057587 354.038605,273.909790 
	C352.821198,273.444885 351.603821,272.979950 350.357086,271.887756 
	C350.218903,267.846954 350.019287,264.433533 350.015625,261.019928 
	C349.987427,234.704056 349.997192,208.388123 349.995178,182.072205 
	C354.470245,183.196838 358.945343,184.321487 363.714172,186.120071 
	C364.011353,217.158966 364.014801,247.523911 364.018250,277.888855 
z"/>
<path fill="#878585" opacity="1.000000" stroke="none" 
	d="
M336.955139,263.091125 
	C332.063507,259.612305 327.171844,256.133453 322.136871,251.882721 
	C321.995667,225.741226 321.997833,200.371597 322.000000,175.001984 
	C325.082977,175.670578 328.165955,176.339188 331.656006,177.413757 
	C332.690521,177.931244 333.317963,178.042770 333.945404,178.154282 
	C334.402100,178.166443 334.858795,178.178619 335.726562,178.671448 
	C336.425537,180.761765 336.961853,182.371109 336.964111,183.981186 
	C337.001007,210.351120 336.970520,236.721130 336.955139,263.091125 
z"/>
<path fill="#918E8E" opacity="1.000000" stroke="none" 
	d="
M200.806107,381.447845 
	C193.959473,373.229858 190.334076,363.372498 190.380081,353.082245 
	C190.470322,332.892059 191.966888,312.708923 192.830780,292.520691 
	C192.977646,289.088989 193.668457,285.326538 189.369232,283.109070 
	C189.633148,275.125458 189.710770,267.679077 190.091141,260.248260 
	C190.165649,258.792511 191.412338,257.396790 192.370575,256.216461 
	C194.271408,260.723999 195.941208,264.980469 197.563141,269.255096 
	C199.412964,274.130310 201.220108,279.021790 202.876190,284.295654 
	C202.470459,286.634033 202.032257,288.582520 202.028748,290.531830 
	C201.982742,316.076721 202.058258,341.622009 201.944382,367.166473 
	C201.923157,371.928528 201.203461,376.687469 200.806107,381.447845 
z"/>
<path fill="#9D9B9C" opacity="1.000000" stroke="none" 
	d="
M364.341949,278.071442 
	C364.014801,247.523911 364.011353,217.158966 364.017273,186.308517 
	C368.435974,186.828796 372.845337,187.834595 377.619385,188.987213 
	C377.656433,193.733292 377.061462,198.331619 377.045380,202.931961 
	C376.954407,228.975891 377.002136,255.020325 377.001953,281.533508 
	C372.889374,280.752960 368.777496,279.503479 364.341949,278.071442 
z"/>
<path fill="#969394" opacity="1.000000" stroke="none" 
	d="
M192.118393,255.973404 
	C191.412338,257.396790 190.165649,258.792511 190.091141,260.248260 
	C189.710770,267.679077 189.633148,275.125458 189.116272,282.849365 
	C184.710297,281.216339 180.637665,279.300354 176.232651,276.763977 
	C175.601807,273.864777 175.049667,271.586670 175.043884,269.307159 
	C174.981995,244.895172 175.006470,220.482986 175.007263,196.070862 
	C178.719345,194.726868 182.431412,193.382889 186.500549,191.971130 
	C186.891846,192.676361 186.926071,193.449371 186.956299,195.037918 
	C187.232315,207.242615 187.048004,218.668396 187.942657,230.009048 
	C188.629807,238.719421 190.676361,247.322571 192.118393,255.973404 
z"/>
<path fill="#918E8E" opacity="1.000000" stroke="none" 
	d="
M337.024811,263.422333 
	C336.970520,236.721130 337.001007,210.351120 336.964111,183.981186 
	C336.961853,182.371109 336.425537,180.761765 336.055695,178.769104 
	C340.404205,179.532532 344.834717,180.678940 349.630188,181.948776 
	C349.997192,208.388123 349.987427,234.704056 350.015625,261.019928 
	C350.019287,264.433533 350.218903,267.846954 350.174133,271.614441 
	C348.576202,271.315369 347.131897,270.662292 345.341583,269.959534 
	C342.361877,267.857758 339.728180,265.805634 337.024811,263.422333 
z"/>
<path fill="#A6A3A4" opacity="1.000000" stroke="none" 
	d="
M162.059601,363.961578 
	C166.006470,382.647797 170.034439,401.317474 173.853287,420.029816 
	C175.079010,426.035858 175.856445,432.140961 176.656723,438.224731 
	C178.244949,450.298126 173.487885,457.474670 161.365753,460.541260 
	C160.654327,457.662140 160.049164,455.214600 160.042755,452.765472 
	C159.974136,426.493011 159.927185,400.219818 160.091171,373.948212 
	C160.111969,370.615356 161.373108,367.290253 162.059601,363.961578 
z"/>
<path fill="#ABA9A9" opacity="1.000000" stroke="none" 
	d="
M162.092056,363.517700 
	C161.373108,367.290253 160.111969,370.615356 160.091171,373.948212 
	C159.927185,400.219818 159.974136,426.493011 160.042755,452.765472 
	C160.049164,455.214600 160.654327,457.662140 160.991959,460.528564 
	C158.579620,461.025116 156.156784,461.103485 153.364563,461.108582 
	C152.996582,413.882568 152.982727,366.729828 153.051163,319.577209 
	C153.054123,317.535278 153.814316,315.494446 154.553925,313.255859 
	C161.042618,319.000397 161.972595,324.640350 159.845123,332.165833 
	C158.664856,336.340729 159.185898,341.128815 159.580139,345.583862 
	C160.098648,351.443024 161.246994,357.246460 162.092056,363.517700 
z"/>
<path fill="#817F7F" opacity="1.000000" stroke="none" 
	d="
M321.708649,174.804993 
	C321.997833,200.371597 321.995667,225.741226 321.983551,251.586243 
	C317.080566,247.568481 312.187561,243.075333 307.319214,237.898895 
	C307.562592,235.262970 307.965668,233.310898 307.971497,231.357620 
	C308.030853,211.451187 308.025543,191.544556 308.038330,171.637970 
	C309.106689,171.753601 310.175018,171.869217 311.661438,172.408920 
	C312.717621,172.894119 313.355713,172.955246 313.993835,173.016388 
	C314.445679,173.033142 314.897522,173.049896 315.715057,173.455505 
	C316.716919,173.905243 317.353119,173.966125 317.989288,174.027008 
	C319.131958,174.220673 320.274628,174.414352 321.708649,174.804993 
z"/>
<path fill="#878585" opacity="1.000000" stroke="none" 
	d="
M200.906006,381.708374 
	C201.203461,376.687469 201.923157,371.928528 201.944382,367.166473 
	C202.058258,341.622009 201.982742,316.076721 202.028748,290.531830 
	C202.032257,288.582520 202.470459,286.634033 203.174210,284.479004 
	C207.096237,290.182800 210.550644,296.092743 213.607910,302.092224 
	C212.807175,304.007477 212.057755,305.832123 212.052155,307.659058 
	C211.974945,332.888611 212.021622,358.118530 211.956253,383.348145 
	C211.951370,385.233337 211.323959,387.116913 210.627594,388.964844 
	C209.109955,388.648346 207.950699,388.368195 206.791428,388.088043 
	C206.478561,388.053528 206.234100,387.905792 205.985168,387.070984 
	C204.894104,385.684235 203.875931,384.871338 202.857758,384.058411 
	C202.240479,383.361908 201.623184,382.665405 200.906006,381.708374 
z"/>
<path fill="#ABA9A9" opacity="1.000000" stroke="none" 
	d="
M392.189941,279.782501 
	C391.586945,278.039215 391.040802,276.137970 391.036682,274.235504 
	C390.978027,247.221954 390.992798,220.208237 390.982788,192.753387 
	C394.096161,193.103790 397.216583,193.895355 400.669403,195.269501 
	C401.333740,201.292679 401.921692,206.731812 401.952057,212.174088 
	C402.067200,232.785126 402.001587,253.397202 402.003601,274.008881 
	C398.835358,275.880554 395.667114,277.752258 392.189941,279.782501 
z"/>
<path fill="#817F7F" opacity="1.000000" stroke="none" 
	d="
M210.985947,389.001221 
	C211.323959,387.116913 211.951370,385.233337 211.956253,383.348145 
	C212.021622,358.118530 211.974945,332.888611 212.052155,307.659058 
	C212.057755,305.832123 212.807175,304.007477 213.810394,302.361267 
	C217.961121,307.354340 221.512238,312.167877 224.666626,317.037354 
	C223.513733,319.058838 222.114105,321.019531 222.099304,322.990601 
	C221.918625,347.083344 221.941116,371.177612 221.910980,395.271484 
	C218.488464,393.922333 215.065948,392.573242 211.331329,390.737244 
	C211.008118,389.833984 210.997025,389.417603 210.985947,389.001221 
z"/>
<path fill="#BAB9B9" opacity="1.000000" stroke="none" 
	d="
M144.477783,204.782776 
	C144.590897,211.198456 144.109329,217.647446 144.037857,224.100983 
	C143.901428,236.419357 143.998764,248.740295 143.999802,261.528534 
	C138.551437,259.403137 133.102341,256.809418 127.325340,253.665115 
	C126.990585,238.721207 126.983719,224.327850 126.976852,209.934509 
	C132.674011,208.229050 138.371155,206.523605 144.477783,204.782776 
z"/>
<path fill="#787778" opacity="1.000000" stroke="none" 
	d="
M307.748291,171.442780 
	C308.025543,191.544556 308.030853,211.451187 307.971497,231.357620 
	C307.965668,233.310898 307.562592,235.262970 307.179016,237.596893 
	C302.429260,231.869232 297.844421,225.760269 293.291199,218.951355 
	C293.548157,216.462921 293.962708,214.675049 293.968964,212.885773 
	C294.021301,197.929733 293.998627,182.973419 293.998535,168.017197 
	C298.485107,169.093994 302.971710,170.170792 307.748291,171.442780 
z"/>
<path fill="#787778" opacity="1.000000" stroke="none" 
	d="
M222.149658,395.530548 
	C221.941116,371.177612 221.918625,347.083344 222.099304,322.990601 
	C222.114105,321.019531 223.513733,319.058838 224.931274,317.233917 
	C226.738754,318.715088 227.855759,320.081940 229.037415,321.390381 
	C231.035110,323.602325 233.073700,325.777313 235.095093,327.967865 
	C234.397766,329.731384 233.104919,331.491119 233.093750,333.258972 
	C232.957275,354.842712 233.008972,376.427643 233.008530,398.475708 
	C229.466202,397.889282 225.927261,396.839447 222.149658,395.530548 
z"/>
<path fill="#9D9B9C" opacity="1.000000" stroke="none" 
	d="
M174.739746,196.035095 
	C175.006470,220.482986 174.981995,244.895172 175.043884,269.307159 
	C175.049667,271.586670 175.601807,273.864777 175.951233,276.556458 
	C172.099686,275.247681 168.197174,273.525940 164.124237,271.049744 
	C163.969528,246.531586 163.985245,222.767899 164.000961,199.004196 
	C164.638428,198.908722 165.275894,198.813232 166.569153,198.802017 
	C167.832352,198.404984 168.439774,197.923706 169.047180,197.442413 
	C169.480194,197.319565 169.913223,197.196716 170.838654,197.294373 
	C171.910187,197.326599 172.489319,197.138306 173.257401,196.868561 
	C173.682556,196.628723 173.851883,196.416840 173.954361,196.151505 
	C174.126984,196.100784 174.299622,196.050064 174.739746,196.035095 
z"/>
<path fill="#817F7F" opacity="1.000000" stroke="none" 
	d="
M320.593018,370.954529 
	C322.739990,371.300018 324.481903,371.649872 326.600830,372.434021 
	C326.651489,375.634369 326.088928,378.396576 326.043610,381.167297 
	C325.913666,389.104553 325.993469,397.045197 325.986084,405.215027 
	C325.981293,405.445526 325.984192,405.906555 325.984192,405.906555 
	C318.611633,406.861145 311.239075,407.815704 303.506897,408.298462 
	C303.432312,405.898712 303.950531,403.972473 303.964111,402.042633 
	C304.044098,390.679321 304.006531,379.315186 304.008545,367.951324 
	C309.401672,368.953857 314.794769,369.956390 320.593018,370.954529 
z"/>
<path fill="#BAB9B9" opacity="1.000000" stroke="none" 
	d="
M423.685547,200.776215 
	C424.016083,218.629074 423.972137,236.321198 424.051208,254.012787 
	C424.062103,256.448090 424.683380,258.880707 425.064270,261.756470 
	C420.981995,264.450195 416.857544,266.701965 412.367126,268.528656 
	C412.015778,244.691849 412.030304,221.280121 412.044830,197.868393 
	C415.813232,198.784027 419.581604,199.699661 423.685547,200.776215 
z"/>
<path fill="#B3B0B0" opacity="1.000000" stroke="none" 
	d="
M411.764893,197.631653 
	C412.030304,221.280121 412.015778,244.691849 412.009064,268.577209 
	C408.918701,270.681519 405.820496,272.312225 402.362946,273.975891 
	C402.001587,253.397202 402.067200,232.785126 401.952057,212.174088 
	C401.921692,206.731812 401.333740,201.292679 401.001404,195.422409 
	C404.495636,195.793457 407.990265,196.594193 411.764893,197.631653 
z"/>
<path fill="#706F70" opacity="1.000000" stroke="none" 
	d="
M293.663818,167.850906 
	C293.998627,182.973419 294.021301,197.929733 293.968964,212.885773 
	C293.962708,214.675049 293.548157,216.462921 293.153564,218.637024 
	C282.019836,203.660538 275.909332,186.301056 271.980011,167.644470 
	C279.136688,164.641586 286.267914,164.423065 293.663818,167.850906 
z"/>
<path fill="#706F70" opacity="1.000000" stroke="none" 
	d="
M275.975830,406.931763 
	C275.984406,390.590485 275.992981,374.249176 276.366089,357.475586 
	C280.149261,358.377441 283.567963,359.711639 286.986664,361.045837 
	C288.213074,361.821686 289.439484,362.597534 290.843536,364.099182 
	C291.006622,379.446869 290.992096,394.068817 290.977539,408.690735 
	C288.290375,408.712891 285.603210,408.735046 282.352722,408.322388 
	C279.851562,407.568939 277.913727,407.250336 275.975830,406.931763 
z"/>
<path fill="#ABA9A9" opacity="1.000000" stroke="none" 
	d="
M163.630447,198.990936 
	C163.985245,222.767899 163.969528,246.531586 163.909058,270.788513 
	C161.465256,270.455933 159.066193,269.630096 156.324051,268.601685 
	C155.320084,266.462067 154.100342,264.529358 154.085129,262.587280 
	C153.939789,244.034790 153.976929,225.480637 154.035858,206.927200 
	C154.040970,205.317551 154.575760,203.709564 154.938156,201.717819 
	C155.456100,201.239319 155.900391,201.143829 156.848328,201.272751 
	C157.907211,201.085495 158.462479,200.673813 159.017746,200.262115 
	C160.431808,199.833984 161.845871,199.405838 163.630447,198.990936 
z"/>
<path fill="#DFDEDE" opacity="1.000000" stroke="none" 
	d="
M460.005981,209.986191 
	C467.523834,211.793350 475.113190,213.364136 482.501465,215.599518 
	C484.049744,216.067963 485.741577,218.926666 485.862091,220.781723 
	C486.612213,232.325195 485.526031,233.640503 474.756866,237.975983 
	C470.338226,239.754852 466.096527,241.973358 461.392761,243.554352 
	C461.007874,240.633774 461.074890,238.148239 460.988403,235.668076 
	C460.689819,227.106445 460.337738,218.546677 460.005981,209.986191 
z"/>
<path fill="#787778" opacity="1.000000" stroke="none" 
	d="
M291.428741,408.799683 
	C290.992096,394.068817 291.006622,379.446869 291.047180,364.340820 
	C295.166962,365.123322 299.260773,366.389954 303.681580,367.803955 
	C304.006531,379.315186 304.044098,390.679321 303.964111,402.042633 
	C303.950531,403.972473 303.432312,405.898712 303.070007,408.210083 
	C299.288483,408.698578 295.584198,408.803589 291.428741,408.799683 
z"/>
<path fill="#C8C6C6" opacity="1.000000" stroke="none" 
	d="
M126.575844,209.931702 
	C126.983719,224.327850 126.990585,238.721207 126.986771,253.590042 
	C123.075806,252.285629 119.175514,250.505707 115.125916,247.946396 
	C114.988640,235.790665 115.000679,224.414322 115.012718,213.037994 
	C118.733421,212.001633 122.454132,210.965256 126.575844,209.931702 
z"/>
<path fill="#918E8E" opacity="1.000000" stroke="none" 
	d="
M339.008636,373.075989 
	C341.047791,373.053986 343.086975,373.031952 345.563049,372.995117 
	C349.033417,372.999786 352.066864,373.019257 355.551025,373.523865 
	C356.028107,382.075409 356.054443,390.141876 356.080811,398.208313 
	C355.566711,398.454163 355.052612,398.700012 354.040161,398.689880 
	C352.025085,399.164886 350.508392,399.895935 348.991699,400.626953 
	C345.571075,401.620605 342.150452,402.614288 338.444763,403.170532 
	C338.439789,400.960693 338.942261,399.190704 338.961884,397.415344 
	C339.051514,389.303070 339.005768,381.189240 339.008636,373.075989 
z"/>
<path fill="#D3D2D2" opacity="1.000000" stroke="none" 
	d="
M459.635773,209.931091 
	C460.337738,218.546677 460.689819,227.106445 460.988403,235.668076 
	C461.074890,238.148239 461.007874,240.633774 461.024078,243.593109 
	C457.234528,246.275894 453.432129,248.482407 449.291046,250.766434 
	C448.962646,236.567535 448.972931,222.291122 448.976440,207.556961 
	C452.401642,208.024811 455.833618,208.950394 459.635773,209.931091 
z"/>
<path fill="#6D5BA1" opacity="1.000000" stroke="none" 
	d="
M274.463806,94.340607 
	C271.082733,88.509224 268.153687,82.356216 264.822754,76.429062 
	C263.649841,74.342010 261.492767,72.808037 259.416809,71.018387 
	C264.365021,67.752762 269.508057,64.131248 275.096527,61.431789 
	C276.934540,60.543949 280.781708,61.227074 282.158600,62.671173 
	C283.659241,64.245049 284.353699,67.852829 283.664948,70.023605 
	C281.079254,78.173363 277.785828,86.098564 274.463806,94.340607 
z"/>
<path fill="#DFDEDE" opacity="1.000000" stroke="none" 
	d="
M101.836182,242.077362 
	C96.217514,239.826187 90.599365,237.573715 84.980003,235.324280 
	C80.073059,233.360016 80.370964,228.977554 81.279343,225.284348 
	C81.740509,223.409409 84.608841,221.584366 86.776115,220.780212 
	C91.827774,218.905823 97.113861,217.663269 102.663437,216.622772 
	C103.014412,223.222076 103.106331,229.365936 102.946411,235.503204 
	C102.889099,237.702744 102.223930,239.886429 101.836182,242.077362 
z"/>
<path fill="#878585" opacity="1.000000" stroke="none" 
	d="
M338.574249,373.047821 
	C339.005768,381.189240 339.051514,389.303070 338.961884,397.415344 
	C338.942261,399.190704 338.439789,400.960693 338.076782,403.102783 
	C337.248199,403.652130 336.502563,403.831818 335.223419,403.768433 
	C334.118835,403.897003 333.547729,404.268707 332.976624,404.640381 
	C332.238708,404.787109 331.500824,404.933838 330.199280,404.802338 
	C328.420715,404.677582 327.205780,404.831055 325.990845,404.984528 
	C325.993469,397.045197 325.913666,389.104553 326.043610,381.167297 
	C326.088928,378.396576 326.651489,375.634369 326.987671,372.448334 
	C330.711639,372.358826 334.425751,372.689240 338.574249,373.047821 
z"/>
<path fill="#D3D2D2" opacity="1.000000" stroke="none" 
	d="
M102.071907,242.333374 
	C102.223930,239.886429 102.889099,237.702744 102.946411,235.503204 
	C103.106331,229.365936 103.014412,223.222076 103.040970,216.632751 
	C106.787415,215.152222 110.514801,214.119797 114.627457,213.062683 
	C115.000679,224.414322 114.988640,235.790665 114.949425,247.648697 
	C110.717377,246.283401 106.512505,244.436401 102.071907,242.333374 
z"/>
<path fill="#969394" opacity="1.000000" stroke="none" 
	d="
M356.468445,398.195862 
	C356.054443,390.141876 356.028107,382.075409 356.004913,373.550232 
	C360.030792,372.709808 364.053558,372.328156 368.533997,372.421509 
	C368.999969,379.637085 369.008240,386.377625 369.016510,393.118195 
	C369.016510,393.118195 368.745728,393.264587 368.257355,393.182495 
	C367.173248,393.611084 366.577515,394.121826 365.981781,394.632568 
	C362.939880,395.816193 359.897949,396.999786 356.468445,398.195862 
z"/>
<path fill="#9D9B9C" opacity="1.000000" stroke="none" 
	d="
M369.389343,393.107239 
	C369.008240,386.377625 368.999969,379.637085 368.985779,372.422577 
	C370.081451,371.617767 371.183044,371.286926 372.645355,370.898682 
	C375.758728,370.264832 378.511444,369.688324 381.641296,369.595947 
	C382.009430,375.380188 382.000397,380.680359 381.991364,385.980499 
	C377.914978,388.352448 373.838593,390.724396 369.389343,393.107239 
z"/>
<path fill="#ABA9A9" opacity="1.000000" stroke="none" 
	d="
M382.331177,385.941772 
	C382.000397,380.680359 382.009430,375.380188 382.031799,369.632233 
	C386.752197,367.783813 391.459320,366.383209 396.547058,364.981079 
	C396.314697,374.774445 389.857056,380.586884 382.331177,385.941772 
z"/>
<path fill="#817F7F" opacity="1.000000" stroke="none" 
	d="
M275.705963,406.954376 
	C277.913727,407.250336 279.851562,407.568939 281.915558,408.223755 
	C279.575745,408.454468 277.109833,408.348969 274.358887,407.975403 
	C274.527985,407.463898 274.982025,407.220428 275.705963,406.954376 
z"/>
<path fill="#969394" opacity="1.000000" stroke="none" 
	d="
M349.332794,400.661072 
	C350.508392,399.895935 352.025085,399.164886 353.747223,398.661713 
	C352.526398,399.491425 351.100128,400.093262 349.332794,400.661072 
z"/>
<path fill="#918E8E" opacity="1.000000" stroke="none" 
	d="
M210.627594,388.964844 
	C210.997025,389.417603 211.008118,389.833984 211.020462,390.562378 
	C209.692245,390.151337 208.362762,389.428284 206.912354,388.396637 
	C207.950699,388.368195 209.109955,388.648346 210.627594,388.964844 
z"/>
<path fill="#918E8E" opacity="1.000000" stroke="none" 
	d="
M202.938232,384.378052 
	C203.875931,384.871338 204.894104,385.684235 205.907211,386.865356 
	C204.941010,386.388306 203.979858,385.543030 202.938232,384.378052 
z"/>
<path fill="#706F70" opacity="1.000000" stroke="none" 
	d="
M256.272369,405.144653 
	C256.971161,404.984375 257.924377,405.019318 258.944519,405.346863 
	C258.183258,405.539581 257.355011,405.439758 256.272369,405.144653 
z"/>
<path fill="#918E8E" opacity="1.000000" stroke="none" 
	d="
M325.986084,405.215027 
	C327.205780,404.831055 328.420715,404.677582 329.821899,404.773315 
	C328.903992,405.357910 327.799835,405.693359 326.339935,405.967682 
	C325.984192,405.906555 325.981293,405.445526 325.986084,405.215027 
z"/>
<path fill="#9D9B9C" opacity="1.000000" stroke="none" 
	d="
M366.291565,394.673157 
	C366.577515,394.121826 367.173248,393.611084 368.109375,393.140076 
	C367.833649,393.691132 367.217499,394.202423 366.291565,394.673157 
z"/>
<path fill="#918E8E" opacity="1.000000" stroke="none" 
	d="
M333.262085,404.705811 
	C333.547729,404.268707 334.118835,403.897003 334.838074,403.744843 
	C334.506622,404.233337 334.027069,404.502289 333.262085,404.705811 
z"/>
<path fill="#817F7F" opacity="1.000000" stroke="none" 
	d="
M265.552124,406.698761 
	C266.155029,406.523224 266.952820,406.592133 267.911469,406.934631 
	C267.297241,407.119843 266.522095,407.031525 265.552124,406.698761 
z"/>
<path fill="#6D5BA1" opacity="1.000000" stroke="none" 
	d="
M256.710632,72.371658 
	C256.472046,72.890266 255.945801,73.408241 255.108017,73.922020 
	C255.338638,73.402222 255.880814,72.886620 256.710632,72.371658 
z"/>
<path fill="#ABA9A9" opacity="1.000000" stroke="none" 
	d="
M168.740082,197.370987 
	C168.439774,197.923706 167.832352,198.404984 166.891571,198.829529 
	C167.183136,198.281693 167.808075,197.790619 168.740082,197.370987 
z"/>
<path fill="#6D5BA1" opacity="1.000000" stroke="none" 
	d="
M273.393433,98.401443 
	C273.278687,97.840408 273.384247,97.135796 273.772980,96.205063 
	C273.908661,96.738579 273.761169,97.498230 273.393433,98.401443 
z"/>
<path fill="#9F5298" opacity="1.000000" stroke="none" 
	d="
M194.839630,155.190155 
	C195.005310,155.661819 194.926437,156.288467 194.585632,156.960541 
	C194.414169,156.452347 194.504639,155.898743 194.839630,155.190155 
z"/>
<path fill="#B3B0B0" opacity="1.000000" stroke="none" 
	d="
M158.727676,200.219574 
	C158.462479,200.673813 157.907211,201.085495 157.190536,201.285431 
	C157.498627,200.774796 157.968109,200.475906 158.727676,200.219574 
z"/>
<path fill="#878585" opacity="1.000000" stroke="none" 
	d="
M313.805023,172.801544 
	C313.355713,172.955246 312.717621,172.894119 312.033936,172.565979 
	C312.531006,172.394882 313.073608,172.490784 313.805023,172.801544 
z"/>
<path fill="#ABA9A9" opacity="1.000000" stroke="none" 
	d="
M391.243408,285.135071 
	C391.139923,284.521515 391.295990,283.949951 391.694275,283.202393 
	C392.187836,283.561218 392.439148,284.095947 392.618713,284.940735 
	C392.198944,285.226196 391.850983,285.201630 391.243408,285.135071 
z"/>
<path fill="#878585" opacity="1.000000" stroke="none" 
	d="
M317.822937,173.790344 
	C317.353119,173.966125 316.716919,173.905243 316.033783,173.577362 
	C316.543396,173.391449 317.100006,173.472549 317.822937,173.790344 
z"/>
<path fill="#918E8E" opacity="1.000000" stroke="none" 
	d="
M333.783569,177.910461 
	C333.317963,178.042770 332.690521,177.931244 332.021301,177.558624 
	C332.526917,177.420563 333.074341,177.543610 333.783569,177.910461 
z"/>
<path fill="#ABA9A9" opacity="1.000000" stroke="none" 
	d="
M173.068436,196.950012 
	C172.489319,197.138306 171.910187,197.326599 171.177704,197.293762 
	C171.502686,196.768967 171.981049,196.465286 172.759308,196.377197 
	C173.059219,196.592819 173.068436,196.950012 173.068436,196.950012 
z"/>
<path fill="#969394" opacity="1.000000" stroke="none" 
	d="
M173.257401,196.868561 
	C173.068436,196.950012 173.059219,196.592819 173.057846,196.414703 
	C173.056473,196.236603 173.495941,196.092148 173.725159,196.121826 
	C173.851883,196.416840 173.682556,196.628723 173.257401,196.868561 
z"/>
<path fill="#A85398" opacity="1.000000" stroke="none" 
	d="
M286.985229,360.656799 
	C283.567963,359.711639 280.149261,358.377441 276.367737,357.004822 
	C268.905609,352.735657 261.806335,348.504913 254.414322,344.110260 
	C247.979370,338.714142 241.837173,333.481964 235.395035,328.108826 
	C233.073700,325.777313 231.035110,323.602325 229.037415,321.390381 
	C227.855759,320.081940 226.738754,318.715088 225.328003,317.177979 
	C221.512238,312.167877 217.961121,307.354340 214.207535,302.271729 
	C210.550644,296.092743 207.096237,290.182800 203.343811,284.089539 
	C201.220108,279.021790 199.412964,274.130310 197.563141,269.255096 
	C195.941208,264.980469 194.271408,260.723999 192.370575,256.216461 
	C190.676361,247.322571 188.629807,238.719421 187.942657,230.009048 
	C187.048004,218.668396 187.232315,207.242615 186.964783,195.425659 
	C188.618805,196.269211 190.812897,197.205505 191.817917,198.862839 
	C204.201218,219.283707 216.372147,239.833130 228.676254,260.302277 
	C240.808685,280.485779 253.057556,300.599213 265.202454,320.775238 
	C271.874207,331.858795 278.493469,342.975128 284.991638,354.160797 
	C286.043396,355.971222 286.338806,358.221039 286.985229,360.656799 
z"/>
<path fill="#918E8E" opacity="1.000000" stroke="none" 
	d="
M354.177551,274.178894 
	C354.670959,274.057587 355.303284,274.205353 355.970154,274.631775 
	C355.441925,274.756287 354.879242,274.602142 354.177551,274.178894 
z"/>
</svg>