<svg xmlns="http://www.w3.org/2000/svg" xmlns:xlink="http://www.w3.org/1999/xlink" width="1024" zoomAndPan="magnify" viewBox="0 0 768 767.999994" height="1024" preserveAspectRatio="xMidYMid meet" version="1.0"><defs><clipPath id="id1"><path d="M 217 672 L 550 672 L 550 713.507812 L 217 713.507812 Z M 217 672 " clip-rule="nonzero"/></clipPath><clipPath id="id2"><path d="M 107 54.257812 L 690 54.257812 L 690 661 L 107 661 Z M 107 54.257812 " clip-rule="nonzero"/></clipPath></defs><g clip-path="url(#id1)"><path fill="rgb(48.629761%, 53.729248%, 54.508972%)" d="M 444.289062 701.421875 C 469.949219 702.613281 486.808594 704.554688 486.808594 706.941406 C 486.808594 710.523438 443.09375 713.507812 389.234375 713.507812 C 335.375 713.507812 291.660156 710.523438 291.660156 706.941406 C 291.660156 704.703125 307.472656 702.765625 331.644531 701.570312 C 265.398438 700.824219 217.65625 698.585938 217.65625 696.050781 C 217.65625 693.960938 251.824219 692.019531 302.402344 690.976562 C 288.078125 689.035156 279.574219 686.5 279.574219 683.960938 C 279.574219 677.398438 332.6875 672.023438 398.335938 672.023438 C 463.832031 672.023438 517.097656 677.398438 517.097656 683.960938 C 517.097656 686.945312 506.652344 689.484375 489.496094 691.574219 C 525.898438 692.617188 549.023438 694.257812 549.023438 696.050781 C 549.023438 698.4375 505.757812 700.527344 444.585938 701.421875 Z M 444.289062 701.421875 " fill-opacity="1" fill-rule="evenodd"/></g><g clip-path="url(#id2)"><path fill="rgb(32.159424%, 44.309998%, 100%)" d="M 557.378906 563.691406 C 585.28125 565.484375 601.691406 567.570312 601.691406 569.960938 C 601.691406 573.988281 554.992188 577.421875 485.914062 579.210938 C 524.554688 583.238281 549.472656 589.507812 549.472656 596.519531 C 549.472656 603.535156 525.152344 609.800781 487.257812 613.828125 C 545.144531 615.769531 586.324219 620.695312 586.324219 626.511719 C 586.324219 629.648438 573.792969 632.632812 552.902344 635.019531 C 633.023438 636.957031 689.570312 641.882812 689.570312 647.554688 C 689.570312 655.015625 592.292969 660.984375 472.484375 660.984375 C 352.53125 660.984375 255.402344 655.015625 255.402344 647.554688 C 255.402344 643.226562 287.929688 639.496094 338.507812 636.957031 C 305.085938 634.421875 283.898438 630.691406 283.898438 626.664062 C 283.898438 622.933594 301.503906 619.5 329.851562 616.964844 C 270.921875 613.679688 229.441406 605.921875 229.441406 596.820312 C 229.441406 589.953125 252.71875 583.835938 289.121094 579.808594 C 210.195312 578.167969 155.144531 574.4375 155.144531 570.257812 C 155.144531 565.183594 231.53125 561.007812 333.285156 559.960938 C 286.585938 550.5625 245.554688 546.234375 210.046875 546.679688 C 147.535156 493.859375 107.847656 414.921875 107.847656 326.730469 C 107.847656 200.640625 189.011719 93.355469 301.953125 54.554688 C 245.707031 102.457031 210.046875 173.78125 210.046875 253.316406 C 210.046875 397.3125 326.871094 514.152344 470.84375 514.152344 C 548.277344 514.152344 617.804688 480.429688 665.546875 426.859375 C 644.808594 482.964844 607.0625 530.714844 558.574219 564.140625 L 557.527344 564.140625 Z M 557.378906 563.691406 " fill-opacity="1" fill-rule="evenodd"/></g></svg>