<svg xmlns="http://www.w3.org/2000/svg" xmlns:xlink="http://www.w3.org/1999/xlink" width="1024" zoomAndPan="magnify" viewBox="0 0 768 767.999994" height="1024" preserveAspectRatio="xMidYMid meet" version="1.0"><defs><clipPath id="id1"><path d="M 231 627 L 512 627 L 512 662.25 L 231 662.25 Z M 231 627 " clip-rule="nonzero"/></clipPath></defs><g clip-path="url(#id1)"><path fill="#7c898b" d="M 422.558594 652.046875 C 444.234375 653.054688 458.472656 654.691406 458.472656 656.707031 C 458.472656 659.730469 421.546875 662.25 376.054688 662.25 C 330.5625 662.25 293.636719 659.730469 293.636719 656.707031 C 293.636719 654.820312 306.996094 653.179688 327.410156 652.175781 C 271.457031 651.542969 231.128906 649.65625 231.128906 647.511719 C 231.128906 645.75 259.988281 644.113281 302.710938 643.230469 C 290.613281 641.59375 283.429688 639.453125 283.429688 637.308594 C 283.429688 631.769531 328.292969 627.234375 383.742188 627.234375 C 439.066406 627.234375 484.054688 631.769531 484.054688 637.308594 C 484.054688 639.828125 475.234375 641.972656 460.742188 643.734375 C 491.492188 644.617188 511.023438 646 511.023438 647.511719 C 511.023438 649.527344 474.476562 651.292969 422.808594 652.046875 Z M 422.558594 652.046875 " fill-opacity="1" fill-rule="evenodd"/></g><path fill="#5271ff" d="M 518.082031 535.785156 C 541.648438 537.296875 555.511719 539.058594 555.511719 541.074219 C 555.511719 544.476562 516.066406 547.375 457.71875 548.886719 C 490.355469 552.285156 511.402344 557.578125 511.402344 563.496094 C 511.402344 569.417969 490.859375 574.707031 458.851562 578.109375 C 507.746094 579.746094 542.53125 583.902344 542.53125 588.816406 C 542.53125 591.460938 531.945312 593.980469 514.300781 595.996094 C 581.976562 597.632812 629.738281 601.789062 629.738281 606.574219 C 629.738281 612.875 547.570312 617.914062 446.375 617.914062 C 345.054688 617.914062 263.011719 612.875 263.011719 606.574219 C 263.011719 602.921875 290.484375 599.773438 333.207031 597.632812 C 304.976562 595.492188 287.082031 592.34375 287.082031 588.941406 C 287.082031 585.792969 301.953125 582.894531 325.898438 580.753906 C 276.117188 577.980469 241.085938 571.433594 241.085938 563.75 C 241.085938 557.953125 260.746094 552.789062 291.492188 549.390625 C 224.828125 548.003906 178.324219 544.855469 178.324219 541.328125 C 178.324219 537.042969 242.847656 533.519531 328.796875 532.636719 C 289.351562 524.699219 254.695312 521.046875 224.703125 521.425781 C 171.898438 476.835938 138.375 410.199219 138.375 335.757812 C 138.375 229.320312 206.933594 138.753906 302.332031 106.003906 C 254.820312 146.4375 224.703125 206.644531 224.703125 273.785156 C 224.703125 395.335938 323.378906 493.964844 444.988281 493.964844 C 510.394531 493.964844 569.121094 465.5 609.449219 420.277344 C 591.929688 467.640625 560.046875 507.949219 519.089844 536.164062 L 518.207031 536.164062 Z M 518.082031 535.785156 " fill-opacity="1" fill-rule="evenodd"/></svg>