<svg xmlns="http://www.w3.org/2000/svg" xmlns:xlink="http://www.w3.org/1999/xlink" width="500" zoomAndPan="magnify" viewBox="0 0 375 374.999991" height="500" preserveAspectRatio="xMidYMid meet" version="1.0"><defs><g/><clipPath id="id1"><path d="M 73 123 L 135 123 L 135 131.5 L 73 131.5 Z M 73 123 " clip-rule="nonzero"/></clipPath><clipPath id="id2"><path d="M 53.441406 11.5 L 159.941406 11.5 L 159.941406 122 L 53.441406 122 Z M 53.441406 11.5 " clip-rule="nonzero"/></clipPath></defs><g clip-path="url(#id1)"><path fill="rgb(48.629761%, 53.729248%, 54.508972%)" d="M 114.988281 129.296875 C 119.664062 129.515625 122.738281 129.867188 122.738281 130.304688 C 122.738281 130.957031 114.769531 131.5 104.953125 131.5 C 95.132812 131.5 87.164062 130.957031 87.164062 130.304688 C 87.164062 129.894531 90.046875 129.542969 94.453125 129.324219 C 82.378906 129.191406 73.675781 128.78125 73.675781 128.320312 C 73.675781 127.941406 79.902344 127.585938 89.125 127.398438 C 86.511719 127.042969 84.960938 126.582031 84.960938 126.121094 C 84.960938 124.925781 94.644531 123.949219 106.609375 123.949219 C 118.550781 123.949219 128.257812 124.925781 128.257812 126.121094 C 128.257812 126.664062 126.355469 127.125 123.226562 127.503906 C 129.863281 127.695312 134.078125 127.996094 134.078125 128.320312 C 134.078125 128.753906 126.191406 129.136719 115.042969 129.296875 Z M 114.988281 129.296875 " fill-opacity="1" fill-rule="evenodd"/></g><g clip-path="url(#id2)"><path fill="rgb(32.159424%, 44.309998%, 100%)" d="M 135.601562 104.226562 C 140.6875 104.554688 143.679688 104.933594 143.679688 105.367188 C 143.679688 106.101562 135.167969 106.726562 122.574219 107.054688 C 129.617188 107.785156 134.160156 108.925781 134.160156 110.203125 C 134.160156 111.480469 129.726562 112.621094 122.820312 113.355469 C 133.371094 113.707031 140.878906 114.605469 140.878906 115.664062 C 140.878906 116.234375 138.59375 116.777344 134.785156 117.210938 C 149.390625 117.566406 159.699219 118.460938 159.699219 119.492188 C 159.699219 120.851562 141.964844 121.9375 120.128906 121.9375 C 98.261719 121.9375 80.554688 120.851562 80.554688 119.492188 C 80.554688 118.707031 86.484375 118.027344 95.703125 117.566406 C 89.613281 117.101562 85.75 116.421875 85.75 115.691406 C 85.75 115.011719 88.960938 114.386719 94.128906 113.925781 C 83.386719 113.328125 75.824219 111.914062 75.824219 110.257812 C 75.824219 109.007812 80.066406 107.894531 86.703125 107.160156 C 72.316406 106.863281 62.28125 106.183594 62.28125 105.421875 C 62.28125 104.5 76.207031 103.738281 94.753906 103.550781 C 86.242188 101.839844 78.761719 101.050781 72.289062 101.132812 C 60.894531 91.515625 53.660156 77.148438 53.660156 61.09375 C 53.660156 38.144531 68.453125 18.613281 89.042969 11.554688 C 78.789062 20.273438 72.289062 33.253906 72.289062 47.730469 C 72.289062 73.941406 93.582031 95.210938 119.828125 95.210938 C 133.941406 95.210938 146.617188 89.070312 155.320312 79.320312 C 151.539062 89.535156 144.660156 98.226562 135.820312 104.308594 L 135.628906 104.308594 Z M 135.601562 104.226562 " fill-opacity="1" fill-rule="evenodd"/></g><g fill="rgb(100%, 100%, 100%)" fill-opacity="1"><g transform="translate(90.816725, 68.79167)"><g><path d="M 17.125 -22.0625 L 16.796875 -16.890625 L 16.671875 -16.859375 C 15.804688 -18.160156 14.328125 -19.003906 12.234375 -19.390625 C 11.578125 -19.515625 10.945312 -19.578125 10.34375 -19.578125 C 9.75 -19.578125 9.238281 -19.523438 8.8125 -19.421875 C 8.382812 -19.316406 8.015625 -19.164062 7.703125 -18.96875 C 7.066406 -18.539062 6.75 -17.988281 6.75 -17.3125 C 6.75 -16.425781 7.03125 -15.757812 7.59375 -15.3125 C 8.289062 -14.769531 9.453125 -14.390625 11.078125 -14.171875 C 12.703125 -13.960938 14.003906 -13.671875 14.984375 -13.296875 C 15.972656 -12.921875 16.785156 -12.445312 17.421875 -11.875 C 18.617188 -10.789062 19.21875 -9.269531 19.21875 -7.3125 C 19.21875 -4.726562 18.242188 -2.742188 16.296875 -1.359375 C 14.628906 -0.160156 12.535156 0.4375 10.015625 0.4375 C 7.972656 0.4375 5.957031 0.0507812 3.96875 -0.71875 C 3.3125 -0.976562 2.738281 -1.273438 2.25 -1.609375 L 2.4375 -7.484375 L 2.515625 -7.53125 C 3.960938 -5.03125 6.34375 -3.78125 9.65625 -3.78125 C 12.007812 -3.78125 13.566406 -4.347656 14.328125 -5.484375 C 14.585938 -5.867188 14.71875 -6.296875 14.71875 -6.765625 C 14.71875 -7.242188 14.640625 -7.632812 14.484375 -7.9375 C 14.335938 -8.25 14.085938 -8.519531 13.734375 -8.75 C 13.054688 -9.1875 11.914062 -9.484375 10.3125 -9.640625 C 8.707031 -9.796875 7.394531 -10.082031 6.375 -10.5 C 5.351562 -10.925781 4.539062 -11.445312 3.9375 -12.0625 C 2.832031 -13.1875 2.28125 -14.753906 2.28125 -16.765625 C 2.28125 -18.859375 3.015625 -20.546875 4.484375 -21.828125 C 5.960938 -23.140625 7.960938 -23.796875 10.484375 -23.796875 C 13.015625 -23.796875 15.226562 -23.21875 17.125 -22.0625 Z M 17.125 -22.0625 "/></g></g></g><g fill="rgb(100%, 100%, 100%)" fill-opacity="1"><g transform="translate(116.80565, 68.79167)"><g><path d="M 3.5625 -23.421875 C 4.738281 -23.378906 5.445312 -23.359375 5.6875 -23.359375 L 6.953125 -23.359375 C 7.578125 -23.359375 8.078125 -23.40625 8.453125 -23.5 L 8.4375 0 L 3.5625 0 Z M 3.5625 -23.421875 "/></g></g></g><g fill="rgb(100%, 100%, 100%)" fill-opacity="1"><g transform="translate(133.855193, 68.79167)"><g><path d="M 6.453125 0 C 4.722656 0 3.578125 0.0351562 3.015625 0.109375 L 3.015625 -23.46875 C 3.296875 -23.394531 3.878906 -23.359375 4.765625 -23.359375 C 5.648438 -23.359375 6.675781 -23.378906 7.84375 -23.421875 L 7.84375 -4.21875 L 11.484375 -4.21875 C 12.535156 -4.21875 13.378906 -4.253906 14.015625 -4.328125 C 13.929688 -1.578125 13.890625 -0.148438 13.890625 -0.046875 L 13.890625 0.125 C 12.742188 0.0390625 10.816406 0 8.109375 0 Z M 6.453125 0 "/></g></g></g><g fill="rgb(100%, 100%, 100%)" fill-opacity="1"><g transform="translate(153.90795, 68.79167)"><g><path d="M 13.015625 0.0625 C 12.640625 0.0195312 12.023438 0 11.171875 0 L 9.234375 0 C 8.921875 0 8.632812 0.0078125 8.375 0.03125 L 8.359375 0 C 8.410156 -0.0820312 8.4375 -0.175781 8.4375 -0.28125 C 8.4375 -0.382812 8.425781 -0.492188 8.40625 -0.609375 C 8.382812 -0.734375 8.332031 -0.945312 8.25 -1.25 C 8.164062 -1.550781 8.039062 -1.988281 7.875 -2.5625 L 7.125 -4.921875 L 0.59375 -23.421875 C 1.320312 -23.378906 2.25 -23.359375 3.375 -23.359375 C 4.5 -23.359375 5.21875 -23.40625 5.53125 -23.5 L 10.8125 -7.53125 L 15.453125 -23.421875 C 16.160156 -23.378906 17.023438 -23.359375 18.046875 -23.359375 C 19.453125 -23.359375 20.273438 -23.40625 20.515625 -23.5 L 14.109375 -4.96875 C 14.109375 -4.96875 13.898438 -4.285156 13.484375 -2.921875 C 13.148438 -1.742188 12.984375 -0.984375 12.984375 -0.640625 C 12.984375 -0.296875 13.003906 -0.078125 13.046875 0.015625 Z M 13.015625 0.0625 "/></g></g></g><g fill="rgb(100%, 100%, 100%)" fill-opacity="1"><g transform="translate(179.896875, 68.79167)"><g><path d="M 14.765625 -4.21875 C 15.492188 -4.21875 16 -4.285156 16.28125 -4.421875 L 16.34375 -4.40625 L 16.171875 0 L 3.015625 0 L 3.015625 -23.484375 C 3.335938 -23.460938 3.691406 -23.441406 4.078125 -23.421875 L 5.296875 -23.390625 C 6.117188 -23.367188 7.007812 -23.359375 7.96875 -23.359375 C 10.65625 -23.359375 13.304688 -23.40625 15.921875 -23.5 C 15.796875 -22.46875 15.734375 -21.09375 15.734375 -19.375 C 15.734375 -19.1875 15.742188 -19.046875 15.765625 -18.953125 L 15.734375 -18.890625 C 15.128906 -19.066406 14.265625 -19.15625 13.140625 -19.15625 L 7.609375 -19.15625 L 7.609375 -14.6875 L 11.765625 -14.6875 C 13.054688 -14.6875 13.828125 -14.71875 14.078125 -14.78125 L 14.140625 -10.453125 C 13.578125 -10.503906 12.847656 -10.53125 11.953125 -10.53125 L 7.609375 -10.53125 L 7.609375 -4.21875 Z M 14.765625 -4.21875 "/></g></g></g><g fill="rgb(100%, 100%, 100%)" fill-opacity="1"><g transform="translate(202.952836, 68.79167)"><g><path d="M 10.578125 -9.078125 C 10.222656 -9.054688 9.847656 -9.046875 9.453125 -9.046875 C 9.054688 -9.046875 8.460938 -9.070312 7.671875 -9.125 L 7.671875 0 L 3.015625 0 L 3.015625 -23.484375 C 4.660156 -23.691406 6.675781 -23.796875 9.0625 -23.796875 C 12.3125 -23.796875 14.734375 -23.195312 16.328125 -22 C 17.929688 -20.800781 18.734375 -18.945312 18.734375 -16.4375 C 18.734375 -14.488281 18.003906 -12.828125 16.546875 -11.453125 C 16.066406 -11.003906 15.515625 -10.617188 14.890625 -10.296875 L 18.46875 -2.734375 C 19.175781 -1.179688 19.71875 -0.257812 20.09375 0.03125 L 20 0.125 C 18.863281 -0.0625 17.078125 -0.0546875 14.640625 0.140625 Z M 9.390625 -19.65625 C 8.796875 -19.65625 8.222656 -19.625 7.671875 -19.5625 L 7.671875 -12.859375 C 8.242188 -12.773438 8.914062 -12.734375 9.6875 -12.734375 C 10.46875 -12.734375 11.117188 -12.800781 11.640625 -12.9375 C 12.171875 -13.070312 12.628906 -13.28125 13.015625 -13.5625 C 13.847656 -14.175781 14.265625 -15.101562 14.265625 -16.34375 C 14.265625 -17.59375 13.832031 -18.46875 12.96875 -18.96875 C 12.15625 -19.425781 10.960938 -19.65625 9.390625 -19.65625 Z M 9.390625 -19.65625 "/></g></g></g><g fill="rgb(100%, 100%, 100%)" fill-opacity="1"><g transform="translate(228.94176, 68.79167)"><g><path d="M 6.453125 0 C 4.722656 0 3.578125 0.0351562 3.015625 0.109375 L 3.015625 -23.46875 C 3.296875 -23.394531 3.878906 -23.359375 4.765625 -23.359375 C 5.648438 -23.359375 6.675781 -23.378906 7.84375 -23.421875 L 7.84375 -4.21875 L 11.484375 -4.21875 C 12.535156 -4.21875 13.378906 -4.253906 14.015625 -4.328125 C 13.929688 -1.578125 13.890625 -0.148438 13.890625 -0.046875 L 13.890625 0.125 C 12.742188 0.0390625 10.816406 0 8.109375 0 Z M 6.453125 0 "/></g></g></g><g fill="rgb(100%, 100%, 100%)" fill-opacity="1"><g transform="translate(248.994517, 68.79167)"><g><path d="M 3.5625 -23.421875 C 4.738281 -23.378906 5.445312 -23.359375 5.6875 -23.359375 L 6.953125 -23.359375 C 7.578125 -23.359375 8.078125 -23.40625 8.453125 -23.5 L 8.4375 0 L 3.5625 0 Z M 3.5625 -23.421875 "/></g></g></g><g fill="rgb(100%, 100%, 100%)" fill-opacity="1"><g transform="translate(266.044061, 68.79167)"><g><path d="M 3.171875 0 C 3.242188 -0.394531 3.28125 -0.828125 3.28125 -1.296875 L 3.28125 -23.359375 L 6.796875 -23.359375 L 16.109375 -8.71875 L 16.109375 -22.171875 C 16.109375 -22.804688 16.046875 -23.203125 15.921875 -23.359375 L 20.671875 -23.359375 C 20.609375 -22.890625 20.578125 -22.375 20.578125 -21.8125 L 20.578125 0 L 16.9375 0 L 7.765625 -14.0625 L 7.765625 0 Z M 3.171875 0 "/></g></g></g><g fill="rgb(100%, 100%, 100%)" fill-opacity="1"><g transform="translate(294.948392, 68.79167)"><g><path d="M 14.765625 -4.21875 C 15.492188 -4.21875 16 -4.285156 16.28125 -4.421875 L 16.34375 -4.40625 L 16.171875 0 L 3.015625 0 L 3.015625 -23.484375 C 3.335938 -23.460938 3.691406 -23.441406 4.078125 -23.421875 L 5.296875 -23.390625 C 6.117188 -23.367188 7.007812 -23.359375 7.96875 -23.359375 C 10.65625 -23.359375 13.304688 -23.40625 15.921875 -23.5 C 15.796875 -22.46875 15.734375 -21.09375 15.734375 -19.375 C 15.734375 -19.1875 15.742188 -19.046875 15.765625 -18.953125 L 15.734375 -18.890625 C 15.128906 -19.066406 14.265625 -19.15625 13.140625 -19.15625 L 7.609375 -19.15625 L 7.609375 -14.6875 L 11.765625 -14.6875 C 13.054688 -14.6875 13.828125 -14.71875 14.078125 -14.78125 L 14.140625 -10.453125 C 13.578125 -10.503906 12.847656 -10.53125 11.953125 -10.53125 L 7.609375 -10.53125 L 7.609375 -4.21875 Z M 14.765625 -4.21875 "/></g></g></g></svg>